# xmcd CD database file
#
# Track frame offsets:
#	150
#	56058
#	93220
#	135506
#	181856
#	228338
#	277572
#
# Disc length: 4213 seconds
#
# Revision: 0
# Processed by: cddbd v1.5.1PL2 Copyright (c) Steve Scherf et al.
# Submitted via: CDex 1.50
#
DISCID=4d107307
DTITLE=Ernie Hammes - Night Lights (Live At The Innoui)
DYEAR=2005
DGENRE=Jazz
TTITLE0=Never Come Back
TTITLE1=Focal
TTITLE2=To Carole
TTITLE3=Dou'
TTITLE4=New Capri
TTITLE5=A Better World
TTITLE6=Last Minute
EXTD=YEAR: 2005
EXTT0=
EXTT1=
EXTT2=
EXTT3=
EXTT4=
EXTT5=
EXTT6=
PLAYORDER=
